<?xml version="1.0" encoding="UTF-8"?>
<svg version="1.1" xmlns="http://www.w3.org/2000/svg" width="501" height="67">
<path d="M0 0 C1.65 0 3.3 0 5 0 C5.3717334 0.66829834 5.7434668 1.33659668 6.12646484 2.02514648 C15.24851814 18.42873749 15.24851814 18.42873749 24.625 34.6875 C25.01349121 35.34999756 25.40198242 36.01249512 25.80224609 36.69506836 C28.08327758 40.55038222 30.48367662 44.29383141 33 48 C33.57947388 46.99138916 33.57947388 46.99138916 34.1706543 45.96240234 C39.21979706 37.17914529 39.21979706 37.17914529 41.73193359 32.84619141 C42.42677746 31.64747232 43.1216015 30.44874176 43.81640625 29.25 C44.16620544 28.6466684 44.51600464 28.04333679 44.87640381 27.42172241 C47.18926907 23.42442551 49.46038535 19.40564304 51.71484375 15.375 C52.85131045 13.37485676 53.9880169 11.37484973 55.125 9.375 C55.90363403 7.95453369 55.90363403 7.95453369 56.69799805 6.50537109 C57.19211182 5.64508301 57.68622559 4.78479492 58.1953125 3.8984375 C58.61828613 3.14224121 59.04125977 2.38604492 59.47705078 1.60693359 C61 0 61 0 63.59518433 -0.10043335 C64.3887735 -0.06729034 65.18236267 -0.03414734 66 0 C66.17048185 6.68517009 66.32990661 13.37054293 66.48217773 20.05615234 C66.53505916 22.32346359 66.59033502 24.59072046 66.64819336 26.85791016 C66.9725648 39.63532411 67.14581943 52.25858348 66 65 C64.02 65 62.04 65 60 65 C59.67 48.5 59.34 32 59 15 C56.89625 18.609375 54.7925 22.21875 52.625 25.9375 C51.33871965 28.13552083 50.05229423 30.33345679 48.765625 32.53125 C46.47452521 36.4522442 44.20905816 40.38472201 41.984375 44.34375 C41.53884277 45.12758057 41.09331055 45.91141113 40.63427734 46.71899414 C39.81174269 48.16807759 38.99908795 49.62282619 38.19775391 51.08374023 C35.47246572 55.84790784 35.47246572 55.84790784 32.86962891 56.68579102 C32.25265137 56.78947998 31.63567383 56.89316895 31 57 C28.89525881 53.39616857 26.79132629 49.79186559 24.6875 46.1875 C24.11193359 45.20201172 23.53636719 44.21652344 22.94335938 43.20117188 C17.27096978 33.48145566 11.63871194 23.73959336 6 14 C5.67 30.83 5.34 47.66 5 65 C3.35 65 1.7 65 0 65 C0 43.55 0 22.1 0 0 Z " fill="#FCFCFC" transform="translate(0,1)"/>
<path d="M0 0 C1.98 0 3.96 0 6 0 C6 9.9 6 19.8 6 30 C19.86 30 33.72 30 48 30 C48 20.1 48 10.2 48 0 C49.98 0 51.96 0 54 0 C54 21.45 54 42.9 54 65 C52.02 65 50.04 65 48 65 C48 55.1 48 45.2 48 35 C34.14 35 20.28 35 6 35 C6 44.9 6 54.8 6 65 C4.02 65 2.04 65 0 65 C0 43.55 0 22.1 0 0 Z " fill="#FBFCFB" transform="translate(149,1)"/>
<path d="M0 0 C4.35584243 -0.07505428 8.71132632 -0.12902107 13.06762695 -0.16479492 C14.54458181 -0.17973313 16.02149349 -0.20009131 17.49829102 -0.22631836 C30.8727398 -0.45761605 42.77649376 0.42105807 53 10 C59.55890177 18.46003272 62.10418265 27.3774834 61 38 C59.08086472 47.1015278 55.55560516 54.21560694 47.7578125 59.52734375 C40.87263712 63.52630925 34.75681783 65.30771199 26.7578125 65.1953125 C25.98944061 65.1924826 25.22106873 65.18965271 24.42941284 65.18673706 C21.99444479 65.17561311 19.55985538 65.1505236 17.125 65.125 C15.46615118 65.11496011 13.80729654 65.10583603 12.1484375 65.09765625 C8.09881421 65.07569937 4.04947113 65.04122406 0 65 C-0.02465392 60.46102295 -0.04283789 55.92208457 -0.05493164 51.38305664 C-0.0599714 49.83780234 -0.0668032 48.29255284 -0.07543945 46.74731445 C-0.08752076 44.53074971 -0.09323173 42.31424782 -0.09765625 40.09765625 C-0.10281754 39.4028566 -0.10797882 38.70805695 -0.11329651 37.99220276 C-0.11349277 36.3277067 -0.06189129 34.66334501 0 33 C0.495 32.505 0.495 32.505 1 32 C2.65 32 4.3 32 6 32 C6 41.24 6 50.48 6 60 C10.57875 59.938125 15.1575 59.87625 19.875 59.8125 C21.29796387 59.80581299 22.72092773 59.79912598 24.18701172 59.79223633 C32.98298358 59.57765544 40.23764825 58.360184 46.89941406 52.26098633 C53.61536303 45.11756188 54.6342413 38.34800812 54.40625 28.734375 C53.61973284 21.50446727 50.9125832 16.21977001 45.3125 11.5625 C35.88895269 5.56091121 25.69045714 5.48513993 14.875 5.3125 C13.4270539 5.27925303 11.97913591 5.24475683 10.53125 5.20898438 C7.02103994 5.12493651 3.51075308 5.05773635 0 5 C0 3.35 0 1.7 0 0 Z " fill="#FCFCFC" transform="translate(224,1)"/>
<path d="M0 0 C3.44862966 0.07565073 6.8967797 0.15440442 10.34472656 0.25634766 C12.55460231 0.31829333 14.76426205 0.36025136 16.97460938 0.40136719 C25.71826093 0.61841829 33.17468826 1.29010063 40.96679688 5.69433594 C44.53526404 9.68262277 46.16096968 14.06525996 46.03710938 19.44433594 C45.05811639 25.35825275 42.6037388 28.24399387 38.09179688 32.06933594 C38.63449219 32.42125 39.1771875 32.77316406 39.73632812 33.13574219 C44.66317834 36.5357127 47.44224272 39.08970212 49.09179688 45.06933594 C49.78019987 51.26496291 48.9295551 56.02318737 45.09179688 61.06933594 C39.02695385 65.95216779 32.85759685 66.21455107 25.38867188 66.16699219 C24.131987 66.16486977 24.131987 66.16486977 22.84991455 66.16270447 C20.1805053 66.15711791 17.51118067 66.14456788 14.84179688 66.13183594 C13.02929809 66.1268192 11.21679798 66.1222566 9.40429688 66.11816406 C4.96676439 66.10715288 0.52929497 66.08989748 -3.90820312 66.06933594 C-3.90820312 64.74933594 -3.90820312 63.42933594 -3.90820312 62.06933594 C-3.05701904 62.0495166 -2.20583496 62.02969727 -1.32885742 62.00927734 C1.88262711 61.93035823 5.09378835 61.84364639 8.30493164 61.75195312 C9.68473442 61.71408437 11.06462189 61.67916513 12.44458008 61.64746094 C26.79296781 61.98102829 26.79296781 61.98102829 39.71679688 57.06933594 C42.61785672 52.84961252 42.70857693 49.09044683 42.09179688 44.06933594 C40.24481498 40.73056097 38.97939499 39.44307017 35.47216797 37.96630859 C31.49872696 36.91196638 27.7129305 36.71760468 23.63085938 36.65527344 C22.44500748 36.62622421 22.44500748 36.62622421 21.23519897 36.59658813 C18.72917205 36.53717541 16.22309822 36.49056167 13.71679688 36.44433594 C12.00974644 36.40612081 10.30271457 36.36706705 8.59570312 36.32714844 C4.42788644 36.23150583 0.25997957 36.14733479 -3.90820312 36.06933594 C-3.90820312 34.41933594 -3.90820312 32.76933594 -3.90820312 31.06933594 C-2.98072266 31.05475342 -2.05324219 31.0401709 -1.09765625 31.02514648 C2.37670495 30.96372443 5.8503214 30.88950678 9.32421875 30.80688477 C10.82151159 30.77383728 12.31892297 30.74574391 13.81640625 30.72290039 C25.32255802 30.69715105 25.32255802 30.69715105 36.09179688 27.06933594 C38.90126185 23.11852581 39.7046955 19.87037515 39.09179688 15.06933594 C37.7137976 11.36596289 36.51985755 10.290933 32.99804688 8.46777344 C26.20375775 6.05429573 18.72086017 6.49058701 11.59179688 6.38183594 C10.08655969 6.34861311 8.58135 6.31411897 7.07617188 6.27832031 C3.41491495 6.19398458 -0.24641619 6.1269092 -3.90820312 6.06933594 C-3.95092413 4.40321689 -3.94884145 2.73550709 -3.90820312 1.06933594 C-2.90820312 0.06933594 -2.90820312 0.06933594 0 0 Z " fill="#FCFCFC" transform="translate(331.908203125,-0.0693359375)"/>
<path d="M0 0 C1.65 0 3.3 0 5 0 C5.77056994 3.4190187 6.1261624 6.57596811 6.12939453 10.078125 C6.13254669 11.06264648 6.13569885 12.04716797 6.13894653 13.06152344 C6.1369223 14.1137207 6.13489807 15.16591797 6.1328125 16.25 C6.13376923 17.34086914 6.13472595 18.43173828 6.13571167 19.55566406 C6.13639122 21.85872455 6.13455262 24.16178696 6.13037109 26.46484375 C6.12501972 29.98702299 6.13032374 33.50907472 6.13671875 37.03125 C6.13605793 39.27083361 6.13477668 41.51041715 6.1328125 43.75 C6.13483673 44.80219727 6.13686096 45.85439453 6.13894653 46.93847656 C6.13579437 47.92299805 6.13264221 48.90751953 6.12939453 49.921875 C6.12820114 51.21496582 6.12820114 51.21496582 6.12698364 52.53417969 C6 55 6 55 5 60 C17.21 60 29.42 60 42 60 C42 61.65 42 63.3 42 65 C28.14 65 14.28 65 0 65 C0 43.55 0 22.1 0 0 Z " fill="#FAFAFA" transform="translate(459,1)"/>
<path d="M0 0 C1.98 0 3.96 0 6 0 C6 21.45 6 42.9 6 65 C4.02 65 2.04 65 0 65 C-0.15448124 57.70641778 -0.30265296 50.4127354 -0.4429636 43.11886597 C-0.50832264 39.73135401 -0.57578343 36.34391213 -0.64819336 32.95654297 C-0.73053113 29.05444849 -0.80542369 25.15227007 -0.87890625 21.25 C-0.90594131 20.04448486 -0.93297638 18.83896973 -0.96083069 17.59692383 C-1.06630871 11.61044458 -0.94665471 5.91579506 0 0 Z " fill="#FCFCFC" transform="translate(300,1)"/>
<path d="M0 0 C14.19 0 28.38 0 43 0 C43 1.65 43 3.3 43 5 C28.81 5 14.62 5 0 5 C0 3.35 0 1.7 0 0 Z " fill="#FCFCFC" transform="translate(87,1)"/>
<path d="M0 0 C13.86 0 27.72 0 42 0 C42 1.65 42 3.3 42 5 C27.81 5 13.62 5 -1 5 C-0.67 3.35 -0.34 1.7 0 0 Z " fill="#FCFCFC" transform="translate(88,61)"/>
<path d="M0 0 C14.19 0 28.38 0 43 0 C43 1.65 43 3.3 43 5 C29.14 5 15.28 5 1 5 C0.67 3.35 0.34 1.7 0 0 Z " fill="#FBFBFC" transform="translate(87,31)"/>
<path d="M0 0 C13.86 0 27.72 0 42 0 C42 1.65 42 3.3 42 5 C27.92404399 6.15522366 14.09211114 5.79126827 0 5 C0 3.35 0 1.7 0 0 Z " fill="#FCFCFC" transform="translate(397,61)"/>
<path d="M0 0 C13.86 0 27.72 0 42 0 C42.495 0.99 42.495 0.99 43 2 C42.67 2.99 42.34 3.98 42 5 C28.14 5 14.28 5 0 5 C0 3.35 0 1.7 0 0 Z " fill="#FCFCFC" transform="translate(397,1)"/>
<path d="M0 0 C13.86 0 27.72 0 42 0 C42 1.65 42 3.3 42 5 C28.14 5 14.28 5 0 5 C0 3.35 0 1.7 0 0 Z " fill="#FCFCFC" transform="translate(397,31)"/>
<path d="" fill="#FEFEFE" transform="translate(0,0)"/>
<path d="" fill="#FEFEFE" transform="translate(0,0)"/>
<path d="" fill="#FEFEFE" transform="translate(0,0)"/>
<path d="" fill="#FEFEFE" transform="translate(0,0)"/>
<path d="" fill="#FEFEFE" transform="translate(0,0)"/>
<path d="" fill="#FEFEFE" transform="translate(0,0)"/>
<path d="" fill="#FEFEFE" transform="translate(0,0)"/>
<path d="" fill="#FEFEFE" transform="translate(0,0)"/>
<path d="" fill="#FEFEFE" transform="translate(0,0)"/>
<path d="" fill="#FEFEFE" transform="translate(0,0)"/>
<path d="" fill="#FEFEFE" transform="translate(0,0)"/>
<path d="" fill="#FEFEFE" transform="translate(0,0)"/>
<path d="" fill="#FEFEFE" transform="translate(0,0)"/>
<path d="" fill="#FEFEFE" transform="translate(0,0)"/>
<path d="" fill="#FEFEFE" transform="translate(0,0)"/>
<path d="" fill="#FEFEFE" transform="translate(0,0)"/>
<path d="" fill="#FEFEFE" transform="translate(0,0)"/>
<path d="" fill="#FEFEFE" transform="translate(0,0)"/>
<path d="" fill="#FEFEFE" transform="translate(0,0)"/>
<path d="" fill="#FEFEFE" transform="translate(0,0)"/>
<path d="" fill="#FEFEFE" transform="translate(0,0)"/>
<path d="" fill="#FEFEFE" transform="translate(0,0)"/>
<path d="" fill="#FEFEFE" transform="translate(0,0)"/>
<path d="" fill="#FEFEFE" transform="translate(0,0)"/>
<path d="" fill="#FEFEFE" transform="translate(0,0)"/>
<path d="" fill="#FEFEFE" transform="translate(0,0)"/>
<path d="" fill="#FEFEFE" transform="translate(0,0)"/>
<path d="" fill="#FEFEFE" transform="translate(0,0)"/>
<path d="" fill="#FEFEFE" transform="translate(0,0)"/>
<path d="" fill="#FEFEFE" transform="translate(0,0)"/>
<path d="" fill="#FEFEFE" transform="translate(0,0)"/>
<path d="" fill="#FEFEFE" transform="translate(0,0)"/>
<path d="" fill="#FEFEFE" transform="translate(0,0)"/>
</svg>
